<?xml version="1.0" encoding="UTF-8" standalone="no"?>
<!DOCTYPE svg PUBLIC "-//W3C//DTD SVG 1.1//EN" "http://www.w3.org/Graphics/SVG/1.1/DTD/svg11.dtd">
<svg width="100%" height="100%" viewBox="0 0 1244 873" version="1.1" xmlns="http://www.w3.org/2000/svg" xmlns:xlink="http://www.w3.org/1999/xlink" xml:space="preserve" xmlns:serif="http://www.serif.com/" style="fill-rule:evenodd;clip-rule:evenodd;stroke-linejoin:round;stroke-miterlimit:2;">
    <g transform="matrix(1,0,0,1,-1108.14,-974.94)">
        <g transform="matrix(8.4276,0,0,8.4276,-13260.6,-12522.4)">
            <g transform="matrix(50,0,0,50,1854.25,1665.73)">
            </g>
            <text x="1759.82px" y="1665.73px" style="font-family:'Helvetica-Bold', 'Helvetica';font-weight:700;font-size:50px;fill:rgb(25,0,0);">piro</text>
        </g>
        <g transform="matrix(1.12636,0,0,0.954304,-159.323,-32.6898)">
            <rect x="1461.66" y="1055.88" width="10.469" height="913.797" style="fill:rgb(25,0,0);"/>
        </g>
        <g transform="matrix(0.838704,0,0,0.838704,165.953,231.512)">
            <circle cx="1258.51" cy="1455.01" r="32.697" style="fill:rgb(25,0,0);"/>
        </g>
        <g transform="matrix(0.838704,0,0,0.838704,165.953,154.409)">
            <circle cx="1258.51" cy="1455.01" r="32.697" style="fill:rgb(25,0,0);"/>
        </g>
        <g transform="matrix(0.838704,0,0,0.838704,243.27,154.409)">
            <circle cx="1258.51" cy="1455.01" r="32.697" style="fill:rgb(255,0,0);"/>
        </g>
        <g transform="matrix(0.838704,0,0,0.838704,243.27,231.512)">
            <circle cx="1258.51" cy="1455.01" r="32.697" style="fill:rgb(25,0,0);"/>
        </g>
        <g transform="matrix(0.481349,0,0,0.481349,619.542,608.174)">
            <circle cx="1258.51" cy="1455.01" r="32.697" style="fill:rgb(25,0,0);"/>
        </g>
        <g transform="matrix(0.481349,0,0,0.481349,689.231,818.164)">
            <circle cx="1258.51" cy="1455.01" r="32.697" style="fill:rgb(25,0,0);"/>
        </g>
        <g transform="matrix(0.20498,-0.435523,0.435523,0.20498,473.898,1558.41)">
            <circle cx="1258.51" cy="1455.01" r="32.697" style="fill:rgb(25,0,0);"/>
        </g>
        <g transform="matrix(0.481349,0,0,0.481349,759.773,677.469)">
            <circle cx="1258.51" cy="1455.01" r="32.697" style="fill:rgb(25,0,0);"/>
        </g>
        <g transform="matrix(0.481349,0,0,0.481349,759.773,747.26)">
            <circle cx="1258.51" cy="1455.01" r="32.697" style="fill:rgb(25,0,0);"/>
        </g>
        <g transform="matrix(0.481349,0,0,0.481349,759.773,817.678)">
            <circle cx="1258.51" cy="1455.01" r="32.697" style="fill:rgb(25,0,0);"/>
        </g>
        <g transform="matrix(0.481349,0,0,0.481349,689.231,608.174)">
            <circle cx="1258.51" cy="1455.01" r="32.697" style="fill:rgb(25,0,0);"/>
        </g>
        <g transform="matrix(0.481349,0,0,0.481349,549.42,748.23)">
            <circle cx="1258.51" cy="1455.01" r="32.697" style="fill:rgb(25,0,0);"/>
        </g>
        <g transform="matrix(0.481349,0,0,0.481349,619.542,818.164)">
            <circle cx="1258.51" cy="1455.01" r="32.697" style="fill:rgb(25,0,0);"/>
        </g>
        <g transform="matrix(0.481349,0,0,0.481349,549.482,818.164)">
            <circle cx="1258.51" cy="1455.01" r="32.697" style="fill:rgb(25,0,0);"/>
        </g>
        <g transform="matrix(0.481349,0,0,0.481349,549.42,678.077)">
            <circle cx="1258.51" cy="1455.01" r="32.697" style="fill:rgb(25,0,0);"/>
        </g>
        <g transform="matrix(0.481349,0,0,0.481349,549.482,608.174)">
            <circle cx="1258.51" cy="1455.01" r="32.697" style="fill:rgb(25,0,0);"/>
        </g>
        <g transform="matrix(0.242029,0,0,0.242029,811.458,1096.44)">
            <circle cx="1258.51" cy="1455.01" r="32.697" style="fill:rgb(25,0,0);"/>
        </g>
        <g transform="matrix(0.242029,0,0,0.242029,920.748,917.277)">
            <circle cx="1258.51" cy="1455.01" r="32.697" style="fill:rgb(25,0,0);"/>
        </g>
        <g transform="matrix(0.242029,0,0,0.242029,1099.49,1096.1)">
            <circle cx="1258.51" cy="1455.01" r="32.697" style="fill:rgb(25,0,0);"/>
        </g>
        <g transform="matrix(0.242029,0,0,0.242029,1099.49,1026.34)">
            <circle cx="1258.51" cy="1455.01" r="32.697" style="fill:rgb(25,0,0);"/>
        </g>
        <g transform="matrix(0.242029,0,0,0.242029,990.446,917.277)">
            <circle cx="1258.51" cy="1455.01" r="32.697" style="fill:rgb(25,0,0);"/>
        </g>
        <g transform="matrix(0.242029,0,0,0.242029,990.446,1204.92)">
            <circle cx="1258.51" cy="1455.01" r="32.697" style="fill:rgb(25,0,0);"/>
        </g>
        <g transform="matrix(0.242029,0,0,0.242029,811.458,1026.29)">
            <circle cx="1258.51" cy="1455.01" r="32.697" style="fill:rgb(25,0,0);"/>
        </g>
        <g transform="matrix(0.242029,0,0,0.242029,920.748,1204.92)">
            <circle cx="1258.51" cy="1455.01" r="32.697" style="fill:rgb(25,0,0);"/>
        </g>
    </g>
</svg>
